<svg width="27" height="18" viewBox="0 0 27 18" fill="none" xmlns="http://www.w3.org/2000/svg">
<g filter="url(#filter0_d_121_2453)">
<path d="M13.1499 5.79996L5.34997 13.5999C4.98331 13.9666 4.51665 14.1499 3.94998 14.1499C3.38332 14.1499 2.91666 13.9666 2.55 13.5999C2.18333 13.2332 2 12.7666 2 12.1999C2 11.6332 2.18333 11.1666 2.55 10.7999L11.7499 1.6C12.1499 1.2 12.6166 1 13.1499 1C13.6832 1 14.1499 1.2 14.5499 1.6L23.7498 10.7999C24.1165 11.1666 24.2998 11.6332 24.2998 12.1999C24.2998 12.7666 24.1165 13.2332 23.7498 13.5999C23.3832 13.9666 22.9165 14.1499 22.3498 14.1499C21.7832 14.1499 21.3165 13.9666 20.9498 13.5999L13.1499 5.79996Z" fill="#080708"/>
</g>
<defs>
<filter id="filter0_d_121_2453" x="0" y="0" width="26.2998" height="17.1499" filterUnits="userSpaceOnUse" color-interpolation-filters="sRGB">
<feFlood flood-opacity="0" result="BackgroundImageFix"/>
<feColorMatrix in="SourceAlpha" type="matrix" values="0 0 0 0 0 0 0 0 0 0 0 0 0 0 0 0 0 0 127 0" result="hardAlpha"/>
<feOffset dy="1"/>
<feGaussianBlur stdDeviation="1"/>
<feComposite in2="hardAlpha" operator="out"/>
<feColorMatrix type="matrix" values="0 0 0 0 0 0 0 0 0 0 0 0 0 0 0 0 0 0 0.25 0"/>
<feBlend mode="normal" in2="BackgroundImageFix" result="effect1_dropShadow_121_2453"/>
<feBlend mode="normal" in="SourceGraphic" in2="effect1_dropShadow_121_2453" result="shape"/>
</filter>
</defs>
</svg>
