<svg width="10" height="5" viewBox="0 0 10 5" fill="none" xmlns="http://www.w3.org/2000/svg">
<path d="M4.38953 4.76064L0.174419 0.904255C0.116279 0.851064 0.0726744 0.79344 0.0436047 0.731383C0.0145349 0.669326 0 0.602837 0 0.531915C0 0.390071 0.0532946 0.265957 0.159884 0.159574C0.266473 0.0531915 0.406977 0 0.581395 0H9.4186C9.59302 0 9.73353 0.0531915 9.84012 0.159574C9.94671 0.265957 10 0.390071 10 0.531915C10 0.567376 9.94186 0.691489 9.82558 0.904255L5.61047 4.76064C5.51357 4.84929 5.41667 4.91135 5.31977 4.94681C5.22287 4.98227 5.11628 5 5 5C4.88372 5 4.77713 4.98227 4.68023 4.94681C4.58333 4.91135 4.48643 4.84929 4.38953 4.76064Z" fill="#080708"/>
</svg>
