<svg width="27" height="30" viewBox="0 0 27 30" fill="none" xmlns="http://www.w3.org/2000/svg">
<g filter="url(#filter0_d_121_2456)">
<path d="M13.1499 17.8003L5.34997 25.5502C4.98331 25.9169 4.52498 26.1086 3.97498 26.1252C3.42499 26.1419 2.94999 25.9502 2.55 25.5502C2.18333 25.1836 2 24.7169 2 24.1502C2 23.5836 2.18333 23.1169 2.55 22.7503L11.7499 13.5503C11.9499 13.3503 12.1666 13.2087 12.3999 13.1253C12.6332 13.042 12.8832 13.0003 13.1499 13.0003C13.4166 13.0003 13.6666 13.042 13.8999 13.1253C14.1332 13.2087 14.3499 13.3503 14.5499 13.5503L23.7498 22.7503C24.1165 23.1169 24.3082 23.5752 24.3248 24.1252C24.3415 24.6752 24.1498 25.1502 23.7498 25.5502C23.3832 25.9169 22.9165 26.1002 22.3498 26.1002C21.7832 26.1002 21.3165 25.9169 20.9498 25.5502L13.1499 17.8003ZM13.1499 5.80039L5.34997 13.5503C4.98331 13.917 4.52498 14.1087 3.97498 14.1253C3.42499 14.142 2.94999 13.9503 2.55 13.5503C2.18333 13.1837 2 12.717 2 12.1503C2 11.5837 2.18333 11.117 2.55 10.7503L11.7499 1.55042C11.9499 1.35042 12.1666 1.20876 12.3999 1.12543C12.6332 1.04209 12.8832 1.00043 13.1499 1.00043C13.4166 1.00043 13.6666 1.04209 13.8999 1.12543C14.1332 1.20876 14.3499 1.35042 14.5499 1.55042L23.7498 10.7503C24.1165 11.117 24.3082 11.5753 24.3248 12.1253C24.3415 12.6753 24.1498 13.1503 23.7498 13.5503C23.3832 13.917 22.9165 14.1003 22.3498 14.1003C21.7832 14.1003 21.3165 13.917 20.9498 13.5503L13.1499 5.80039Z" fill="#F08221"/>
</g>
<defs>
<filter id="filter0_d_121_2456" x="0" y="0.000427246" width="26.3258" height="29.1258" filterUnits="userSpaceOnUse" color-interpolation-filters="sRGB">
<feFlood flood-opacity="0" result="BackgroundImageFix"/>
<feColorMatrix in="SourceAlpha" type="matrix" values="0 0 0 0 0 0 0 0 0 0 0 0 0 0 0 0 0 0 127 0" result="hardAlpha"/>
<feOffset dy="1"/>
<feGaussianBlur stdDeviation="1"/>
<feComposite in2="hardAlpha" operator="out"/>
<feColorMatrix type="matrix" values="0 0 0 0 0 0 0 0 0 0 0 0 0 0 0 0 0 0 0.25 0"/>
<feBlend mode="normal" in2="BackgroundImageFix" result="effect1_dropShadow_121_2456"/>
<feBlend mode="normal" in="SourceGraphic" in2="effect1_dropShadow_121_2456" result="shape"/>
</filter>
</defs>
</svg>
