<svg width="28" height="26" viewBox="0 0 28 26" fill="none" xmlns="http://www.w3.org/2000/svg">
<path d="M23.75 25.25L18.5 20.0625C17.7708 20.2917 17.0312 20.4635 16.2812 20.5781C15.5312 20.6927 14.7708 20.75 14 20.75C11.2083 20.75 8.65625 20 6.34375 18.5C4.03125 17 2.21875 15.0208 0.90625 12.5625C0.802083 12.375 0.723958 12.1823 0.671875 11.9844C0.619792 11.7865 0.59375 11.5833 0.59375 11.375C0.59375 11.1667 0.619792 10.9635 0.671875 10.7656C0.723958 10.5677 0.802083 10.375 0.90625 10.1875C1.36458 9.375 1.85417 8.58333 2.375 7.8125C2.89583 7.04167 3.5 6.35417 4.1875 5.75L0.75 2.25L2.5 0.5L25.5 23.5L23.75 25.25ZM14 17C14.2292 17 14.4479 16.9896 14.6562 16.9688C14.8646 16.9479 15.0729 16.9063 15.2812 16.8438L8.53125 10.0938C8.46875 10.3021 8.42708 10.5104 8.40625 10.7188C8.38542 10.9271 8.375 11.1458 8.375 11.375C8.375 12.9375 8.92188 14.2656 10.0156 15.3594C11.1094 16.4531 12.4375 17 14 17ZM23.125 17.5625L19.1562 13.625C19.3021 13.2708 19.4167 12.9063 19.5 12.5313C19.5833 12.1563 19.625 11.7708 19.625 11.375C19.625 9.8125 19.0781 8.48438 17.9844 7.39063C16.8906 6.29688 15.5625 5.75 14 5.75C13.6042 5.75 13.2188 5.79167 12.8438 5.875C12.4688 5.95833 12.1042 6.08333 11.75 6.25L8.5625 3.0625C9.4375 2.70833 10.3281 2.44271 11.2344 2.26563C12.1406 2.08854 13.0625 2 14 2C16.7917 2 19.349 2.75521 21.6719 4.26563C23.9948 5.77604 25.8125 7.76042 27.125 10.2188C27.2292 10.3854 27.3073 10.5677 27.3594 10.7656C27.4115 10.9635 27.4375 11.1667 27.4375 11.375C27.4375 11.5833 27.4167 11.7865 27.375 11.9844C27.3333 12.1823 27.2604 12.3646 27.1562 12.5313C26.6562 13.5104 26.0781 14.4271 25.4219 15.2813C24.7656 16.1354 24 16.8958 23.125 17.5625ZM17.3438 11.8125L13.5938 8.0625C14.1354 7.95833 14.6615 8 15.1719 8.1875C15.6823 8.375 16.1146 8.66667 16.4688 9.0625C16.8229 9.4375 17.0781 9.86458 17.2344 10.3438C17.3906 10.8229 17.4271 11.3125 17.3438 11.8125Z" fill="#EDF7F6"/>
</svg>
